#!OML:ASF F:\VICON\USERDATA\INSTALL\rory3\rory3.ASF
:FULLY-SPECIFIED
:DEGREES
3315
root -14.9272 17.6019 13.8044 -2.40323 -207.099 714.512
lowerback 11.1591 1.72294 -2.80563
upperback 0.571986 1.991 -0.213073
thorax -5.74933 1.07783 1.03629
lowerneck -18.4585 -7.56438 -12.5939
upperneck 32.9903 -8.23024 8.56864
head 15.7361 -3.3185 4.41723
rclavicle 2.93704e-014 -3.22031e-014
rhumerus -30.4099 -5.6249 -82.0363
rradius 43.8123
rwrist -3.87066
rhand -20.7169 7.27468
rfingers 7.12502
rthumb 5.6477 -22.6301
lclavicle 2.93704e-014 -3.22031e-014
lhumerus -38.0476 3.1008 77.9567
lradius 29.3517
lwrist -6.75226
lhand -20.5727 26.815
lfingers 7.12502
lthumb 5.78687 56.716
rfemur -16.2183 4.2876 18.279
rtibia 42.2508
rfoot -24.2995 2.62881
rtoes -7.07686
lfemur -4.15228 -7.92305 -21.0051
ltibia 19.4926
lfoot -15.9813 -12.0124
ltoes -15.4762
3316
root -14.9607 17.5944 13.7911 -2.49658 -208.677 714.428
lowerback 11.1308 1.8189 -2.96631
upperback 0.550921 2.09946 -0.157016
thorax -5.7683 1.13532 1.16819
lowerneck -18.3471 -7.50033 -12.5939
upperneck 32.9247 -8.17342 8.59139
head 15.6701 -3.3012 4.43503
rclavicle 4.90004e-014 -1.23246e-014
rhumerus -30.454 -5.45794 -81.8768
rradius 43.6225
rwrist -4.0468
rhand -20.8521 7.36287
rfingers 7.12502
rthumb 5.51718 -22.5453
lclavicle 4.90004e-014 -1.23246e-014
lhumerus -38.2741 2.7172 77.9682
lradius 29.869
lwrist -6.25394
lhand -20.2441 27.2992
lfingers 7.12502
lthumb 6.10419 57.1912
rfemur -16.2594 2.79263 18.5789
rtibia 41.99
rfoot -24.328 0.866991
rtoes -6.40697
lfemur -3.95161 -7.58281 -21.2026
ltibia 19.594
lfoot -15.9762 -10.7613
ltoes -15.5928
3317
root -14.9924 17.589 13.7757 -2.61093 -210.197 714.318
lowerback 11.0295 1.87433 -3.06396
upperback 0.596226 2.16577 -0.149499
thorax -5.67073 1.16916 1.22416
lowerneck -18.4325 -7.44533 -12.5329
upperneck 32.9692 -8.13992 8.6369
head 15.7044 -3.27815 4.45114
rclavicle -5.67033e-014 7.15625e-015
rhumerus -30.3588 -5.24733 -81.7749
rradius 43.4917
rwrist -4.15404
rhand -20.6818 7.53728
rfingers 7.12502
rthumb 5.68159 -22.3666
lclavicle -5.67033e-014 7.15625e-015
lhumerus -38.3461 2.37254 77.9293
lradius 30.306
lwrist -5.86459
lhand -20.3939 27.5414
lfingers 7.12502
lthumb 5.95952 57.4375
rfemur -16.2442 1.18442 18.8733
rtibia 41.7224
rfoot -24.3116 -1.06742
rtoes -6.65119
lfemur -3.77961 -7.19254 -21.4382
ltibia 19.7475
lfoot -16.0817 -9.49755
ltoes -16.3395
3318
root -15.0211 17.5885 13.7641 -2.6064 -211.649 714.307
lowerback 10.9076 1.89195 -3.09906
upperback 0.607763 2.18957 -0.11534
thorax -5.59416 1.18055 1.2799
lowerneck -18.6133 -7.37924 -12.3761
upperneck 33.05 -8.07747 8.57066
head 15.7615 -3.24517 4.40725
rclavicle -1.03865e-013 2.22639e-014
rhumerus -30.279 -5.10839 -81.6737
rradius 43.3395
rwrist -3.99861
rhand -20.4655 7.77641
rfingers 7.12502
rthumb 5.89042 -22.1217
lclavicle -1.03865e-013 2.22639e-014
lhumerus -38.3434 2.17757 77.7897
lradius 30.6029
lwrist -5.21648
lhand -20.7307 27.0915
lfingers 7.12502
lthumb 5.63434 56.9966
rfemur -16.2821 -0.356478 19.2533
rtibia 41.4299
rfoot -24.2508 -2.76131
rtoes -5.25351
lfemur -3.75886 -6.70558 -21.5446
ltibia 19.9854
lfoot -16.2889 -8.2818
ltoes -17.6981
3319
root -15.0481 17.5837 13.7542 -2.45709 -213.095 714.347
lowerback 10.7195 1.93071 -3.06631
upperback 0.522198 2.24561 -0.0952348
thorax -5.58131 1.20583 1.278
lowerneck -18.5437 -7.32191 -12.3608
upperneck 33.0378 -8.05561 8.67066
head 15.74 -3.22657 4.45266
rclavicle -2.86747e-014 -1.11319e-014
rhumerus -30.3284 -5.07312 -81.5872
rradius 43.1713
rwrist -3.5514
rhand -20.395 7.73798
rfingers 7.12502
rthumb 5.95848 -22.1582
lclavicle -2.86747e-014 -1.11319e-014
lhumerus -38.4873 1.80464 77.6542
lradius 30.9965
lwrist -4.32608
lhand -21.3113 26.8447
lfingers 7.12502
lthumb 5.07381 56.764
rfemur -16.4513 -1.99206 19.6776
rtibia 41.125
rfoot -24.2989 -4.38318
rtoes -4.2864
lfemur -3.86941 -6.18473 -21.5831
ltibia 20.199
lfoot -16.5488 -6.97451
ltoes -19.4465
3320
root -15.0748 17.5743 13.74 -2.35494 -214.58 714.299
lowerback 10.4887 1.98965 -3.06877
upperback 0.416401 2.32468 -0.0774663
thorax -5.56808 1.24331 1.29103
lowerneck -18.222 -7.28021 -12.4673
upperneck 32.9479 -8.04721 8.81046
head 15.6345 -3.22701 4.5333
rclavicle 1.33683e-014 1.31198e-014
rhumerus -30.4051 -5.03563 -81.4375
rradius 42.9098
rwrist -3.12186
rhand -20.2643 7.92476
rfingers 7.12502
rthumb 6.08463 -21.9679
lclavicle 1.33683e-014 1.31198e-014
lhumerus -38.7462 1.48155 77.5065
lradius 31.4305
lwrist -3.9038
lhand -22.0035 27.4097
lfingers 7.12502
lthumb 4.40543 57.3439
rfemur -16.6376 -3.74193 20.0298
rtibia 40.8372
rfoot -24.3625 -6.02592
rtoes -4.27476
lfemur -3.91579 -5.86207 -21.7202
ltibia 20.3474
lfoot -16.5413 -5.69173
ltoes -20.2359
